<mxfile host="app.diagrams.net" modified="2021-07-20T07:43:26.719Z" agent="5.0 (Windows)" etag="p0-StE7u2LbL7X5h-76a" compressed="false" version="14.9.0" type="github">
  <diagram id="HRz2BaVfYzM14FI6Cr06" name="Page-1">
    <mxGraphModel dx="1422" dy="1880" grid="1" gridSize="10" guides="1" tooltips="1" connect="1" arrows="1" fold="1" page="1" pageScale="1" pageWidth="850" pageHeight="1100" math="0" shadow="0">
      <root>
        <mxCell id="0" />
        <mxCell id="1" parent="0" />
        <mxCell id="ROyDRAQvj7djIwxt4Fbn-3" value="" style="whiteSpace=wrap;html=1;aspect=fixed;fillColor=#dae8fc;strokeColor=#6c8ebf;" parent="1" vertex="1">
          <mxGeometry x="10" y="100" width="90" height="90" as="geometry" />
        </mxCell>
        <mxCell id="ROyDRAQvj7djIwxt4Fbn-4" value="" style="whiteSpace=wrap;html=1;aspect=fixed;fillColor=#e1d5e7;strokeColor=#9673a6;" parent="1" vertex="1">
          <mxGeometry x="20" y="110" width="90" height="90" as="geometry" />
        </mxCell>
        <mxCell id="ROyDRAQvj7djIwxt4Fbn-5" value="" style="rounded=0;whiteSpace=wrap;html=1;fillColor=#f8cecc;strokeColor=#b85450;" parent="1" vertex="1">
          <mxGeometry x="500" y="340" width="20" height="270" as="geometry" />
        </mxCell>
        <mxCell id="ROyDRAQvj7djIwxt4Fbn-7" value="" style="whiteSpace=wrap;html=1;aspect=fixed;fillColor=#f8cecc;strokeColor=#b85450;" parent="1" vertex="1">
          <mxGeometry x="140" y="62.5" width="80" height="80" as="geometry" />
        </mxCell>
        <mxCell id="ROyDRAQvj7djIwxt4Fbn-8" value="" style="whiteSpace=wrap;html=1;aspect=fixed;fillColor=#fff2cc;strokeColor=#d6b656;" parent="1" vertex="1">
          <mxGeometry x="150" y="72.5" width="80" height="80" as="geometry" />
        </mxCell>
        <mxCell id="ROyDRAQvj7djIwxt4Fbn-9" value="" style="whiteSpace=wrap;html=1;aspect=fixed;fillColor=#f8cecc;strokeColor=#b85450;" parent="1" vertex="1">
          <mxGeometry x="160" y="82.5" width="80" height="80" as="geometry" />
        </mxCell>
        <mxCell id="ROyDRAQvj7djIwxt4Fbn-10" value="" style="whiteSpace=wrap;html=1;aspect=fixed;fillColor=#fff2cc;strokeColor=#d6b656;" parent="1" vertex="1">
          <mxGeometry x="170" y="92.5" width="80" height="80" as="geometry" />
        </mxCell>
        <mxCell id="ROyDRAQvj7djIwxt4Fbn-11" value="" style="whiteSpace=wrap;html=1;aspect=fixed;fillColor=#f8cecc;strokeColor=#b85450;" parent="1" vertex="1">
          <mxGeometry x="180" y="102.5" width="80" height="80" as="geometry" />
        </mxCell>
        <mxCell id="ROyDRAQvj7djIwxt4Fbn-12" value="" style="whiteSpace=wrap;html=1;aspect=fixed;fillColor=#fff2cc;strokeColor=#d6b656;" parent="1" vertex="1">
          <mxGeometry x="190" y="112.5" width="80" height="80" as="geometry" />
        </mxCell>
        <mxCell id="ROyDRAQvj7djIwxt4Fbn-13" value="" style="whiteSpace=wrap;html=1;aspect=fixed;fillColor=#f8cecc;strokeColor=#b85450;" parent="1" vertex="1">
          <mxGeometry x="200" y="122.5" width="80" height="80" as="geometry" />
        </mxCell>
        <mxCell id="ROyDRAQvj7djIwxt4Fbn-14" value="" style="whiteSpace=wrap;html=1;aspect=fixed;fillColor=#fff2cc;strokeColor=#d6b656;" parent="1" vertex="1">
          <mxGeometry x="210" y="132.5" width="80" height="80" as="geometry" />
        </mxCell>
        <mxCell id="ROyDRAQvj7djIwxt4Fbn-15" value="" style="whiteSpace=wrap;html=1;aspect=fixed;fillColor=#f8cecc;strokeColor=#b85450;" parent="1" vertex="1">
          <mxGeometry x="220" y="147.5" width="80" height="80" as="geometry" />
        </mxCell>
        <mxCell id="ROyDRAQvj7djIwxt4Fbn-27" value="" style="whiteSpace=wrap;html=1;aspect=fixed;fillColor=#f8cecc;strokeColor=#b85450;" parent="1" vertex="1">
          <mxGeometry x="490" y="130" width="50" height="50" as="geometry" />
        </mxCell>
        <mxCell id="ROyDRAQvj7djIwxt4Fbn-30" value="" style="whiteSpace=wrap;html=1;aspect=fixed;fillColor=#f8cecc;strokeColor=#b85450;" parent="1" vertex="1">
          <mxGeometry x="340" y="95" width="67.5" height="67.5" as="geometry" />
        </mxCell>
        <mxCell id="ROyDRAQvj7djIwxt4Fbn-31" value="" style="whiteSpace=wrap;html=1;aspect=fixed;fillColor=#fff2cc;strokeColor=#d6b656;" parent="1" vertex="1">
          <mxGeometry x="350" y="102.5" width="67.5" height="67.5" as="geometry" />
        </mxCell>
        <mxCell id="ROyDRAQvj7djIwxt4Fbn-32" value="" style="whiteSpace=wrap;html=1;aspect=fixed;fillColor=#f8cecc;strokeColor=#b85450;" parent="1" vertex="1">
          <mxGeometry x="358" y="110" width="67.5" height="67.5" as="geometry" />
        </mxCell>
        <mxCell id="ROyDRAQvj7djIwxt4Fbn-33" value="" style="whiteSpace=wrap;html=1;aspect=fixed;fillColor=#fff2cc;strokeColor=#d6b656;" parent="1" vertex="1">
          <mxGeometry x="368" y="117.5" width="67.5" height="67.5" as="geometry" />
        </mxCell>
        <mxCell id="ROyDRAQvj7djIwxt4Fbn-37" value="" style="whiteSpace=wrap;html=1;aspect=fixed;fillColor=#f8cecc;strokeColor=#b85450;" parent="1" vertex="1">
          <mxGeometry x="380" y="127.5" width="67.5" height="67.5" as="geometry" />
        </mxCell>
        <mxCell id="ROyDRAQvj7djIwxt4Fbn-39" value="" style="rounded=0;whiteSpace=wrap;html=1;fillColor=#d5e8d4;strokeColor=#82b366;" parent="1" vertex="1">
          <mxGeometry x="600" y="30" width="20" height="270" as="geometry" />
        </mxCell>
        <mxCell id="ROyDRAQvj7djIwxt4Fbn-40" value="" style="rounded=0;whiteSpace=wrap;html=1;fillColor=#dae8fc;strokeColor=#6c8ebf;" parent="1" vertex="1">
          <mxGeometry x="381.75" y="310" width="20" height="320" as="geometry" />
        </mxCell>
        <mxCell id="ROyDRAQvj7djIwxt4Fbn-41" value="" style="rounded=0;whiteSpace=wrap;html=1;fillColor=#f8cecc;strokeColor=#b85450;" parent="1" vertex="1">
          <mxGeometry x="600" y="340" width="20" height="270" as="geometry" />
        </mxCell>
        <mxCell id="ROyDRAQvj7djIwxt4Fbn-42" value="" style="rounded=0;whiteSpace=wrap;html=1;fillColor=#dae8fc;strokeColor=#6c8ebf;" parent="1" vertex="1">
          <mxGeometry x="720" y="170" width="20" height="602.5" as="geometry" />
        </mxCell>
        <mxCell id="ROyDRAQvj7djIwxt4Fbn-43" value="" style="rounded=0;whiteSpace=wrap;html=1;fillColor=#f8cecc;strokeColor=#b85450;" parent="1" vertex="1">
          <mxGeometry x="780" y="215" width="20" height="507.5" as="geometry" />
        </mxCell>
        <mxCell id="ROyDRAQvj7djIwxt4Fbn-46" value="" style="rounded=0;whiteSpace=wrap;html=1;fillColor=#d5e8d4;strokeColor=#82b366;" parent="1" vertex="1">
          <mxGeometry x="860" y="383.75" width="20" height="170" as="geometry" />
        </mxCell>
        <mxCell id="ROyDRAQvj7djIwxt4Fbn-50" value="" style="endArrow=none;html=1;entryX=1;entryY=0.5;entryDx=0;entryDy=0;" parent="1" source="ROyDRAQvj7djIwxt4Fbn-15" target="ROyDRAQvj7djIwxt4Fbn-4" edge="1">
          <mxGeometry width="50" height="50" relative="1" as="geometry">
            <mxPoint x="410" y="370" as="sourcePoint" />
            <mxPoint x="450" y="340" as="targetPoint" />
          </mxGeometry>
        </mxCell>
        <mxCell id="ROyDRAQvj7djIwxt4Fbn-51" value="" style="endArrow=none;html=1;entryX=1;entryY=0.5;entryDx=0;entryDy=0;exitX=0;exitY=0.5;exitDx=0;exitDy=0;" parent="1" source="ROyDRAQvj7djIwxt4Fbn-15" target="ROyDRAQvj7djIwxt4Fbn-4" edge="1">
          <mxGeometry width="50" height="50" relative="1" as="geometry">
            <mxPoint x="220" y="310" as="sourcePoint" />
            <mxPoint x="110" y="290" as="targetPoint" />
          </mxGeometry>
        </mxCell>
        <mxCell id="ROyDRAQvj7djIwxt4Fbn-52" value="" style="whiteSpace=wrap;html=1;aspect=fixed;fillColor=#bac8d3;strokeColor=#23445d;" parent="1" vertex="1">
          <mxGeometry x="220" y="177.5" width="10" height="10" as="geometry" />
        </mxCell>
        <mxCell id="ROyDRAQvj7djIwxt4Fbn-53" value="" style="endArrow=none;html=1;entryX=1;entryY=0.5;entryDx=0;entryDy=0;" parent="1" source="ROyDRAQvj7djIwxt4Fbn-37" edge="1">
          <mxGeometry width="50" height="50" relative="1" as="geometry">
            <mxPoint x="407.5" y="213.83333333333337" as="sourcePoint" />
            <mxPoint x="297.5" y="190" as="targetPoint" />
          </mxGeometry>
        </mxCell>
        <mxCell id="ROyDRAQvj7djIwxt4Fbn-54" value="" style="endArrow=none;html=1;entryX=1;entryY=0.5;entryDx=0;entryDy=0;exitX=0;exitY=0.75;exitDx=0;exitDy=0;" parent="1" source="ROyDRAQvj7djIwxt4Fbn-37" edge="1">
          <mxGeometry width="50" height="50" relative="1" as="geometry">
            <mxPoint x="407.5" y="213.83333333333337" as="sourcePoint" />
            <mxPoint x="297.5" y="190" as="targetPoint" />
          </mxGeometry>
        </mxCell>
        <mxCell id="ROyDRAQvj7djIwxt4Fbn-55" value="" style="whiteSpace=wrap;html=1;aspect=fixed;fillColor=#bac8d3;strokeColor=#23445d;" parent="1" vertex="1">
          <mxGeometry x="380" y="170" width="10" height="10" as="geometry" />
        </mxCell>
        <mxCell id="ROyDRAQvj7djIwxt4Fbn-56" value="" style="whiteSpace=wrap;html=1;aspect=fixed;fillColor=#bac8d3;strokeColor=#23445d;" parent="1" vertex="1">
          <mxGeometry x="490" y="152.5" width="10" height="10" as="geometry" />
        </mxCell>
        <mxCell id="ROyDRAQvj7djIwxt4Fbn-57" value="" style="endArrow=none;html=1;exitX=0;exitY=0.64;exitDx=0;exitDy=0;exitPerimeter=0;" parent="1" source="ROyDRAQvj7djIwxt4Fbn-27" edge="1">
          <mxGeometry width="50" height="50" relative="1" as="geometry">
            <mxPoint x="200" y="390" as="sourcePoint" />
            <mxPoint x="450" y="170" as="targetPoint" />
          </mxGeometry>
        </mxCell>
        <mxCell id="ROyDRAQvj7djIwxt4Fbn-59" value="" style="endArrow=none;html=1;exitX=0;exitY=0;exitDx=0;exitDy=0;entryX=1.007;entryY=0.644;entryDx=0;entryDy=0;entryPerimeter=0;" parent="1" source="ROyDRAQvj7djIwxt4Fbn-56" target="ROyDRAQvj7djIwxt4Fbn-37" edge="1">
          <mxGeometry width="50" height="50" relative="1" as="geometry">
            <mxPoint x="510" y="182" as="sourcePoint" />
            <mxPoint x="470" y="190" as="targetPoint" />
          </mxGeometry>
        </mxCell>
        <mxCell id="ROyDRAQvj7djIwxt4Fbn-60" value="" style="endArrow=none;html=1;entryX=1;entryY=0;entryDx=0;entryDy=0;exitX=0;exitY=0;exitDx=0;exitDy=0;" parent="1" source="ROyDRAQvj7djIwxt4Fbn-39" target="ROyDRAQvj7djIwxt4Fbn-27" edge="1">
          <mxGeometry width="50" height="50" relative="1" as="geometry">
            <mxPoint x="400" y="390" as="sourcePoint" />
            <mxPoint x="450" y="340" as="targetPoint" />
          </mxGeometry>
        </mxCell>
        <mxCell id="ROyDRAQvj7djIwxt4Fbn-61" value="" style="endArrow=none;html=1;entryX=1;entryY=1;entryDx=0;entryDy=0;exitX=0;exitY=1;exitDx=0;exitDy=0;" parent="1" source="ROyDRAQvj7djIwxt4Fbn-39" target="ROyDRAQvj7djIwxt4Fbn-27" edge="1">
          <mxGeometry width="50" height="50" relative="1" as="geometry">
            <mxPoint x="400" y="390" as="sourcePoint" />
            <mxPoint x="450" y="340" as="targetPoint" />
          </mxGeometry>
        </mxCell>
        <mxCell id="ROyDRAQvj7djIwxt4Fbn-62" value="" style="endArrow=none;html=1;exitX=1;exitY=0;exitDx=0;exitDy=0;entryX=0;entryY=0;entryDx=0;entryDy=0;" parent="1" source="ROyDRAQvj7djIwxt4Fbn-40" target="ROyDRAQvj7djIwxt4Fbn-5" edge="1">
          <mxGeometry width="50" height="50" relative="1" as="geometry">
            <mxPoint x="400" y="390" as="sourcePoint" />
            <mxPoint x="450" y="340" as="targetPoint" />
          </mxGeometry>
        </mxCell>
        <mxCell id="ROyDRAQvj7djIwxt4Fbn-63" value="" style="endArrow=none;html=1;exitX=1;exitY=1;exitDx=0;exitDy=0;entryX=0;entryY=1;entryDx=0;entryDy=0;" parent="1" source="ROyDRAQvj7djIwxt4Fbn-40" target="ROyDRAQvj7djIwxt4Fbn-5" edge="1">
          <mxGeometry width="50" height="50" relative="1" as="geometry">
            <mxPoint x="410" y="320" as="sourcePoint" />
            <mxPoint x="510" y="350.0000000000002" as="targetPoint" />
          </mxGeometry>
        </mxCell>
        <mxCell id="ROyDRAQvj7djIwxt4Fbn-64" value="" style="endArrow=none;html=1;exitX=1;exitY=0;exitDx=0;exitDy=0;entryX=0;entryY=0;entryDx=0;entryDy=0;" parent="1" source="ROyDRAQvj7djIwxt4Fbn-5" target="ROyDRAQvj7djIwxt4Fbn-41" edge="1">
          <mxGeometry width="50" height="50" relative="1" as="geometry">
            <mxPoint x="420" y="330" as="sourcePoint" />
            <mxPoint x="520" y="360.0000000000002" as="targetPoint" />
          </mxGeometry>
        </mxCell>
        <mxCell id="ROyDRAQvj7djIwxt4Fbn-65" value="" style="endArrow=none;html=1;exitX=1;exitY=1;exitDx=0;exitDy=0;entryX=0;entryY=1;entryDx=0;entryDy=0;" parent="1" source="ROyDRAQvj7djIwxt4Fbn-5" target="ROyDRAQvj7djIwxt4Fbn-41" edge="1">
          <mxGeometry width="50" height="50" relative="1" as="geometry">
            <mxPoint x="430" y="340" as="sourcePoint" />
            <mxPoint x="530" y="370.0000000000002" as="targetPoint" />
          </mxGeometry>
        </mxCell>
        <mxCell id="ROyDRAQvj7djIwxt4Fbn-66" value="" style="endArrow=none;html=1;exitX=1;exitY=0;exitDx=0;exitDy=0;entryX=0;entryY=0;entryDx=0;entryDy=0;" parent="1" source="ROyDRAQvj7djIwxt4Fbn-42" target="ROyDRAQvj7djIwxt4Fbn-43" edge="1">
          <mxGeometry width="50" height="50" relative="1" as="geometry">
            <mxPoint x="480" y="492.5" as="sourcePoint" />
            <mxPoint x="580" y="522.5000000000002" as="targetPoint" />
          </mxGeometry>
        </mxCell>
        <mxCell id="ROyDRAQvj7djIwxt4Fbn-67" value="" style="endArrow=none;html=1;exitX=1;exitY=1;exitDx=0;exitDy=0;entryX=0;entryY=1;entryDx=0;entryDy=0;" parent="1" source="ROyDRAQvj7djIwxt4Fbn-42" target="ROyDRAQvj7djIwxt4Fbn-43" edge="1">
          <mxGeometry width="50" height="50" relative="1" as="geometry">
            <mxPoint x="490" y="502.5" as="sourcePoint" />
            <mxPoint x="590" y="532.5000000000002" as="targetPoint" />
          </mxGeometry>
        </mxCell>
        <mxCell id="ROyDRAQvj7djIwxt4Fbn-70" value="" style="endArrow=none;html=1;exitX=1;exitY=1;exitDx=0;exitDy=0;entryX=0;entryY=1;entryDx=0;entryDy=0;" parent="1" source="ROyDRAQvj7djIwxt4Fbn-43" target="ROyDRAQvj7djIwxt4Fbn-46" edge="1">
          <mxGeometry width="50" height="50" relative="1" as="geometry">
            <mxPoint x="850" y="692.5" as="sourcePoint" />
            <mxPoint x="620" y="562.5000000000002" as="targetPoint" />
          </mxGeometry>
        </mxCell>
        <mxCell id="ROyDRAQvj7djIwxt4Fbn-71" value="" style="endArrow=none;html=1;entryX=1;entryY=0;entryDx=0;entryDy=0;exitX=0;exitY=0;exitDx=0;exitDy=0;" parent="1" source="ROyDRAQvj7djIwxt4Fbn-46" target="ROyDRAQvj7djIwxt4Fbn-43" edge="1">
          <mxGeometry width="50" height="50" relative="1" as="geometry">
            <mxPoint x="890" y="382.5" as="sourcePoint" />
            <mxPoint x="852" y="267.35249999999996" as="targetPoint" />
          </mxGeometry>
        </mxCell>
        <mxCell id="ROyDRAQvj7djIwxt4Fbn-109" value="" style="rounded=1;whiteSpace=wrap;html=1;opacity=30;shadow=0;sketch=0;glass=0;dashed=1;strokeWidth=4;" parent="1" vertex="1">
          <mxGeometry x="570" y="-30" width="80" height="1020" as="geometry" />
        </mxCell>
        <mxCell id="ROyDRAQvj7djIwxt4Fbn-110" value="" style="endArrow=none;html=1;entryX=0;entryY=0;entryDx=0;entryDy=0;exitX=1;exitY=0;exitDx=0;exitDy=0;" parent="1" source="ROyDRAQvj7djIwxt4Fbn-109" target="ROyDRAQvj7djIwxt4Fbn-42" edge="1">
          <mxGeometry width="50" height="50" relative="1" as="geometry">
            <mxPoint x="400" y="390" as="sourcePoint" />
            <mxPoint x="450" y="340" as="targetPoint" />
          </mxGeometry>
        </mxCell>
        <mxCell id="ROyDRAQvj7djIwxt4Fbn-111" value="" style="endArrow=none;html=1;entryX=0;entryY=1;entryDx=0;entryDy=0;exitX=1;exitY=1;exitDx=0;exitDy=0;" parent="1" source="ROyDRAQvj7djIwxt4Fbn-109" target="ROyDRAQvj7djIwxt4Fbn-42" edge="1">
          <mxGeometry width="50" height="50" relative="1" as="geometry">
            <mxPoint x="630" y="630" as="sourcePoint" />
            <mxPoint x="450" y="340" as="targetPoint" />
          </mxGeometry>
        </mxCell>
        <mxCell id="ROyDRAQvj7djIwxt4Fbn-112" value="&lt;p style=&quot;line-height: 110%&quot;&gt;&lt;/p&gt;&lt;div style=&quot;font-size: 17px&quot;&gt;&lt;font style=&quot;font-size: 17px&quot;&gt;Input Layer (CNN)&lt;br&gt;&lt;/font&gt;&lt;/div&gt;&lt;div style=&quot;font-size: 17px&quot;&gt;&lt;font style=&quot;font-size: 17px&quot;&gt;(13,194,1)&lt;br&gt;&lt;/font&gt;&lt;/div&gt;&lt;p&gt;&lt;/p&gt;" style="text;html=1;strokeColor=none;fillColor=none;align=center;verticalAlign=middle;whiteSpace=wrap;rounded=0;shadow=0;glass=0;sketch=0;opacity=30;" parent="1" vertex="1">
          <mxGeometry y="212.5" width="140" height="67.5" as="geometry" />
        </mxCell>
        <mxCell id="ROyDRAQvj7djIwxt4Fbn-113" value="&lt;p style=&quot;line-height: 110%&quot;&gt;&lt;/p&gt;&lt;div style=&quot;font-size: 17px&quot;&gt;&lt;font style=&quot;font-size: 17px&quot;&gt;Conv 2D + Max Pooling +Batch Normalization&lt;br&gt;&lt;/font&gt;&lt;/div&gt;&lt;div style=&quot;font-size: 17px&quot;&gt;&lt;font style=&quot;font-size: 17px&quot;&gt;(5,186,32)&lt;br&gt;&lt;/font&gt;&lt;/div&gt;&lt;p&gt;&lt;/p&gt;" style="text;html=1;strokeColor=none;fillColor=none;align=center;verticalAlign=middle;whiteSpace=wrap;rounded=0;shadow=0;glass=0;sketch=0;opacity=30;" parent="1" vertex="1">
          <mxGeometry x="310" y="200" width="190" height="77.5" as="geometry" />
        </mxCell>
        <mxCell id="ROyDRAQvj7djIwxt4Fbn-114" value="&lt;p style=&quot;line-height: 110%&quot;&gt;&lt;/p&gt;&lt;div style=&quot;font-size: 17px&quot;&gt;&lt;font style=&quot;font-size: 17px&quot;&gt;Conv 2D + Max Pooling +Batch Normalization&lt;br&gt;&lt;/font&gt;&lt;/div&gt;&lt;div style=&quot;font-size: 17px&quot;&gt;&lt;font style=&quot;font-size: 17px&quot;&gt;(9,190,64)&lt;br&gt;&lt;/font&gt;&lt;/div&gt;&lt;p&gt;&lt;/p&gt;" style="text;html=1;strokeColor=none;fillColor=none;align=center;verticalAlign=middle;whiteSpace=wrap;rounded=0;shadow=0;glass=0;sketch=0;opacity=30;" parent="1" vertex="1">
          <mxGeometry x="85" y="-20" width="190" height="77.5" as="geometry" />
        </mxCell>
        <mxCell id="ROyDRAQvj7djIwxt4Fbn-115" value="&lt;p style=&quot;line-height: 110%&quot;&gt;&lt;/p&gt;&lt;div style=&quot;font-size: 17px&quot;&gt;&lt;font style=&quot;font-size: 17px&quot;&gt;Conv 2D + Max Pooling +Batch Normalization&lt;br&gt;&lt;/font&gt;&lt;/div&gt;&lt;div style=&quot;font-size: 17px&quot;&gt;&lt;font style=&quot;font-size: 17px&quot;&gt;(1,182,16)&lt;br&gt;&lt;/font&gt;&lt;/div&gt;&lt;p&gt;&lt;/p&gt;" style="text;html=1;strokeColor=none;fillColor=none;align=center;verticalAlign=middle;whiteSpace=wrap;rounded=0;shadow=0;glass=0;sketch=0;opacity=30;" parent="1" vertex="1">
          <mxGeometry x="380" y="15" width="190" height="77.5" as="geometry" />
        </mxCell>
        <mxCell id="ROyDRAQvj7djIwxt4Fbn-116" value="&lt;p style=&quot;line-height: 110%&quot;&gt;&lt;/p&gt;&lt;div style=&quot;font-size: 17px&quot;&gt;&lt;font style=&quot;font-size: 17px&quot;&gt;Flatten&lt;br&gt;&lt;/font&gt;&lt;/div&gt;&lt;div style=&quot;font-size: 17px&quot;&gt;&lt;font style=&quot;font-size: 17px&quot;&gt;(2912,1)&lt;br&gt;&lt;/font&gt;&lt;/div&gt;&lt;p&gt;&lt;/p&gt;" style="text;html=1;strokeColor=none;fillColor=none;align=center;verticalAlign=middle;whiteSpace=wrap;rounded=0;shadow=0;glass=0;sketch=0;opacity=30;" parent="1" vertex="1">
          <mxGeometry x="515" y="-21.75" width="190" height="40.5" as="geometry" />
        </mxCell>
        <mxCell id="ROyDRAQvj7djIwxt4Fbn-117" value="&lt;p style=&quot;line-height: 110%&quot;&gt;&lt;/p&gt;&lt;div style=&quot;font-size: 17px&quot;&gt;Input Layer (LSTM)&lt;font style=&quot;font-size: 17px&quot;&gt;&lt;br&gt;&lt;/font&gt;&lt;/div&gt;&lt;div style=&quot;font-size: 17px&quot;&gt;&lt;font style=&quot;font-size: 17px&quot;&gt;(388,1)&lt;br&gt;&lt;/font&gt;&lt;/div&gt;&lt;p&gt;&lt;/p&gt;" style="text;html=1;strokeColor=none;fillColor=none;align=center;verticalAlign=middle;whiteSpace=wrap;rounded=0;shadow=0;glass=0;sketch=0;opacity=30;" parent="1" vertex="1">
          <mxGeometry x="288.75" y="640" width="190" height="50" as="geometry" />
        </mxCell>
        <mxCell id="ROyDRAQvj7djIwxt4Fbn-118" value="&lt;p style=&quot;line-height: 110%&quot;&gt;&lt;/p&gt;&lt;div style=&quot;font-size: 17px&quot;&gt;LSTM Layer 1&lt;font style=&quot;font-size: 17px&quot;&gt;&lt;br&gt;&lt;/font&gt;&lt;/div&gt;&lt;div style=&quot;font-size: 17px&quot;&gt;&lt;font style=&quot;font-size: 17px&quot;&gt;(970,64)&lt;br&gt;&lt;/font&gt;&lt;/div&gt;&lt;p&gt;&lt;/p&gt;" style="text;html=1;strokeColor=none;fillColor=none;align=center;verticalAlign=middle;whiteSpace=wrap;rounded=0;shadow=0;glass=0;sketch=0;opacity=30;" parent="1" vertex="1">
          <mxGeometry x="410" y="280" width="190" height="50" as="geometry" />
        </mxCell>
        <mxCell id="ROyDRAQvj7djIwxt4Fbn-120" value="&lt;p style=&quot;line-height: 110%&quot;&gt;&lt;/p&gt;&lt;div style=&quot;font-size: 17px&quot;&gt;LSTM Layer 2&lt;font style=&quot;font-size: 17px&quot;&gt;&lt;br&gt;&lt;/font&gt;&lt;/div&gt;&lt;div style=&quot;font-size: 17px&quot;&gt;&lt;font style=&quot;font-size: 17px&quot;&gt;(64,1)&lt;br&gt;&lt;/font&gt;&lt;/div&gt;&lt;p&gt;&lt;/p&gt;" style="text;html=1;strokeColor=none;fillColor=none;align=center;verticalAlign=middle;whiteSpace=wrap;rounded=0;shadow=0;glass=0;sketch=0;opacity=30;" parent="1" vertex="1">
          <mxGeometry x="565" y="620" width="90" height="60" as="geometry" />
        </mxCell>
        <mxCell id="ROyDRAQvj7djIwxt4Fbn-123" value="&lt;p style=&quot;line-height: 110%&quot;&gt;&lt;/p&gt;&lt;div style=&quot;font-size: 17px&quot;&gt;Dense Layer 1&lt;font style=&quot;font-size: 17px&quot;&gt;&lt;br&gt;&lt;/font&gt;&lt;/div&gt;&lt;div style=&quot;font-size: 17px&quot;&gt;&lt;font style=&quot;font-size: 17px&quot;&gt;(Concatenated Input )&lt;br&gt;&lt;/font&gt;&lt;/div&gt;&lt;div style=&quot;font-size: 17px&quot;&gt;&lt;font style=&quot;font-size: 17px&quot;&gt;(2986,1)&lt;br&gt;&lt;/font&gt;&lt;/div&gt;&lt;p&gt;&lt;/p&gt;" style="text;html=1;strokeColor=none;fillColor=none;align=center;verticalAlign=middle;whiteSpace=wrap;rounded=0;shadow=0;glass=0;sketch=0;opacity=30;" parent="1" vertex="1">
          <mxGeometry x="730" y="112.5" width="180" height="50" as="geometry" />
        </mxCell>
        <mxCell id="ROyDRAQvj7djIwxt4Fbn-124" value="&lt;p style=&quot;line-height: 110%&quot;&gt;&lt;/p&gt;&lt;div style=&quot;font-size: 17px&quot;&gt;Dense Layer 2&lt;font style=&quot;font-size: 17px&quot;&gt;&lt;br&gt;&lt;/font&gt;&lt;/div&gt;&lt;div style=&quot;font-size: 17px&quot;&gt;&lt;font style=&quot;font-size: 17px&quot;&gt;(512,1)&lt;br&gt;&lt;/font&gt;&lt;/div&gt;&lt;p&gt;&lt;/p&gt;" style="text;html=1;strokeColor=none;fillColor=none;align=center;verticalAlign=middle;whiteSpace=wrap;rounded=0;shadow=0;glass=0;sketch=0;opacity=30;" parent="1" vertex="1">
          <mxGeometry x="710" y="590" width="180" height="50" as="geometry" />
        </mxCell>
        <mxCell id="ROyDRAQvj7djIwxt4Fbn-125" value="&lt;p style=&quot;line-height: 110%&quot;&gt;&lt;/p&gt;&lt;div style=&quot;font-size: 17px&quot;&gt;Dense Layer 3 (Output)&lt;font style=&quot;font-size: 17px&quot;&gt;&lt;br&gt;&lt;/font&gt;&lt;/div&gt;&lt;div style=&quot;font-size: 17px&quot;&gt;&lt;font style=&quot;font-size: 17px&quot;&gt;(4,1)&lt;br&gt;&lt;/font&gt;&lt;/div&gt;&lt;p&gt;&lt;/p&gt;" style="text;html=1;strokeColor=none;fillColor=none;align=center;verticalAlign=middle;whiteSpace=wrap;rounded=0;shadow=0;glass=0;sketch=0;opacity=30;" parent="1" vertex="1">
          <mxGeometry x="840" y="280" width="180" height="50" as="geometry" />
        </mxCell>
        <mxCell id="b8paOxONHgFu059rE48J-2" value="" style="rounded=0;whiteSpace=wrap;html=1;fillColor=#dae8fc;strokeColor=#6c8ebf;" vertex="1" parent="1">
          <mxGeometry x="600" y="750" width="20" height="200" as="geometry" />
        </mxCell>
        <mxCell id="b8paOxONHgFu059rE48J-5" value="" style="endArrow=none;html=1;exitX=0.5;exitY=0;exitDx=0;exitDy=0;entryX=0;entryY=0;entryDx=0;entryDy=0;" edge="1" parent="1" source="b8paOxONHgFu059rE48J-10" target="b8paOxONHgFu059rE48J-2">
          <mxGeometry width="50" height="50" relative="1" as="geometry">
            <mxPoint x="455.5" y="760" as="sourcePoint" />
            <mxPoint x="444.13" y="720" as="targetPoint" />
          </mxGeometry>
        </mxCell>
        <mxCell id="b8paOxONHgFu059rE48J-6" value="" style="endArrow=none;html=1;exitX=0.5;exitY=1;exitDx=0;exitDy=0;entryX=0;entryY=1;entryDx=0;entryDy=0;" edge="1" parent="1" source="b8paOxONHgFu059rE48J-10" target="b8paOxONHgFu059rE48J-2">
          <mxGeometry width="50" height="50" relative="1" as="geometry">
            <mxPoint x="455.5" y="930" as="sourcePoint" />
            <mxPoint x="504.13" y="730.0000000000002" as="targetPoint" />
          </mxGeometry>
        </mxCell>
        <mxCell id="b8paOxONHgFu059rE48J-9" value="&lt;p style=&quot;line-height: 110%&quot;&gt;&lt;/p&gt;&lt;div style=&quot;font-size: 17px&quot;&gt;Input Layer (Static)&lt;font style=&quot;font-size: 17px&quot;&gt;&lt;br&gt;&lt;/font&gt;&lt;/div&gt;&lt;div style=&quot;font-size: 17px&quot;&gt;&lt;font style=&quot;font-size: 17px&quot;&gt;(10,1)&lt;br&gt;&lt;/font&gt;&lt;/div&gt;&lt;p&gt;&lt;/p&gt;" style="text;html=1;strokeColor=none;fillColor=none;align=center;verticalAlign=middle;whiteSpace=wrap;rounded=0;shadow=0;glass=0;sketch=0;opacity=30;" vertex="1" parent="1">
          <mxGeometry x="500" y="1000" width="190" height="50" as="geometry" />
        </mxCell>
        <mxCell id="b8paOxONHgFu059rE48J-10" value="&lt;div style=&quot;font-size: 17px&quot;&gt;&lt;font style=&quot;font-size: 17px&quot;&gt;Static Features&lt;/font&gt;&lt;/div&gt;&lt;div style=&quot;font-size: 17px&quot;&gt;&lt;font style=&quot;font-size: 17px&quot;&gt;&lt;font style=&quot;font-size: 17px&quot;&gt;(10,1)&lt;/font&gt;&lt;br&gt;&lt;/font&gt;&lt;/div&gt;" style="ellipse;whiteSpace=wrap;html=1;" vertex="1" parent="1">
          <mxGeometry x="330" y="810" width="140.5" height="80" as="geometry" />
        </mxCell>
        <mxCell id="b8paOxONHgFu059rE48J-11" value="" style="endArrow=none;dashed=1;html=1;" edge="1" parent="1">
          <mxGeometry width="50" height="50" relative="1" as="geometry">
            <mxPoint x="340" y="620" as="sourcePoint" />
            <mxPoint x="390" y="570" as="targetPoint" />
          </mxGeometry>
        </mxCell>
      </root>
    </mxGraphModel>
  </diagram>
</mxfile>
